<svg xmlns="http://www.w3.org/2000/svg" width="1200" height="320" viewBox="0 0 1200 320" role="img" aria-labelledby="title desc">
  <title id="title">Aliyus Hedri</title>
  <desc id="desc">Robotics, perception and embedded systems, with an abstract robot trajectory and range measurements. Decorative illustration, not experimental data.</desc>
  <defs>
    <pattern id="grid" width="40" height="40" patternUnits="userSpaceOnUse"><path d="M40 0H0V40" fill="none" stroke="#cbd9e5" stroke-width="1"/></pattern>
  </defs>
  <rect width="1200" height="320" rx="16" fill="#edf3f8"/>
  <rect x="750" width="450" height="320" fill="url(#grid)"/>
  <path d="M800 258L800 73L958 73L958 119L1115 119L1115 269" fill="none" stroke="#adbfce" stroke-width="5" stroke-linejoin="round"/>
  <g stroke="#5b899e" stroke-width="1.5" opacity=".42">
    <path d="M984 222L800 73M984 222L872 73M984 222L958 90M984 222L1013 119M984 222L1075 119M984 222L1115 153M984 222L1115 224M984 222L1115 269"/>
  </g>
  <path d="M753 281C840 281 835 210 889 210S936 263 984 222" fill="none" stroke="#246b86" stroke-width="5" stroke-linecap="round"/>
  <circle cx="753" cy="281" r="5" fill="#246b86"/>
  <circle cx="984" cy="222" r="22" fill="#edf3f8" stroke="#246b86" stroke-width="2"/>
  <path d="M976 232L983 207L994 228L984 225Z" fill="#246b86"/>
  <g font-family="Segoe UI, Arial, sans-serif">
    <text x="54" y="112" font-size="54" font-weight="700" fill="#203f59">Aliyus Hedri</text>
    <text x="57" y="166" font-size="25" fill="#365b72">Robotics, perception &amp; embedded systems</text>
    <text x="57" y="227" font-size="19" fill="#42647b">LiDAR–inertial odometry / SLAM</text>
    <text x="57" y="259" font-size="19" fill="#42647b">ACS Laboratory · Telkom University</text>
  </g>
</svg>
